# xmcd CD database file
#
# Track frame offsets:
#	182
#	15175
#	33710
#	45485
#	61825
#	83210
#	98197
#	113840
#	130690
#	147495
#
# Disc length: 2283 seconds
#
# Revision: 5
# Processed by: cddbd v1.5.1PL2 Copyright (c) Steve Scherf et al.
# Submitted via: CDex 1.51
#
DISCID=7b08e90a
DTITLE=Emmylou Harris - Pieces of the Sky
DYEAR=1975
DGENRE=Country
TTITLE0=Bluebird Wine
TTITLE1=Too Far Gone
TTITLE2=If I Could Only Win Your Love
TTITLE3=Boulder to Birmingham
TTITLE4=Before Believing
TTITLE5=Bottle Let Me Down
TTITLE6=Sleepless Nights
TTITLE7=Coat of Many Colors
TTITLE8=For No One
TTITLE9=Queen of the Silver Dollar
EXTD=YEAR: 1975
EXTT0=
EXTT1=
EXTT2=
EXTT3=
EXTT4=
EXTT5=
EXTT6=
EXTT7=
EXTT8=
EXTT9=
PLAYORDER=
